<svg viewBox="0 0 24 24" xmlns="http://www.w3.org/2000/svg">
  <defs>
    <linearGradient id="pythonGradient1" x1="0%" y1="0%" x2="100%" y2="100%">
      <stop offset="0%" style="stop-color:#3776ab"/>
      <stop offset="100%" style="stop-color:#ffd43b"/>
    </linearGradient>
    <linearGradient id="pythonGradient2" x1="0%" y1="0%" x2="100%" y2="100%">
      <stop offset="0%" style="stop-color:#ffd43b"/>
      <stop offset="100%" style="stop-color:#3776ab"/>
    </linearGradient>
  </defs>
  
  <path d="M12 2c-2.5 0-4.5 2-4.5 4.5V8h-1c-1.1 0-2 .9-2 2v8c0 1.1.9 2 2 2h11c1.1 0 2-.9 2-2v-8c0-1.1-.9-2-2-2h-1V6.5C16.5 4 14.5 2 12 2z" 
        fill="url(#pythonGradient1)"/>
  
  <path d="M12 2c2.5 0 4.5 2 4.5 4.5V8h1c1.1 0 2 .9 2 2v8c0 1.1-.9 2-2 2H6.5c-1.1 0-2-.9-2-2v-8c0-1.1.9-2 2-2h1V6.5C7.5 4 9.5 2 12 2z" 
        fill="url(#pythonGradient2)" opacity="0.8"/>
  
  <circle cx="9.5" cy="5.5" r="0.8" fill="#fff"/>
  <circle cx="14.5" cy="18.5" r="0.8" fill="#fff"/>
</svg>
